#!OML:ASF H:\BreakDance\Project 1\Capture day 1\Session 1\Male.ASF
:FULLY-SPECIFIED
:DEGREES
2784
root -17.0374 16.2106 -4.1753 183.322 -486.379 -539.317
lowerback -0.651299 0.215555 -3.80602
upperback 5.33049 0.44648 -1.54579
thorax 5.88028 0.0515297 0.5465
lowerneck 1.68455 -0.519441 -4.1975
upperneck 20.2655 -0.375135 -3.24323
head 5.86578 -0.8522 -0.353826
rclavicle -4.69132e-014 1.90833e-014
rhumerus -32.8395 -16.6462 -72.9323
rradius 88.6053
rwrist 19.4031
rhand -36.8409 -52.8744
rfingers 7.12502
rthumb -9.92114 637.379
lclavicle -4.69132e-014 1.90833e-014
lhumerus -5.72133 -9.45884 75.2883
lradius 70.4478
lwrist -28.0443
lhand -38.8813 -763.598
lfingers 7.12502
lthumb -11.8892 -13.9555
rfemur -12.5336 -14.5022 10.0893
rtibia 41.3499
rfoot -29.3278 -15.4631
rtoes -9.58394
lfemur 692.311 -0.626333 713.588
ltibia 39.9272
lfoot -17.496 7.69967
ltoes -27.9491
2785
root -17.0581 16.2158 -4.16366 183.46 -486.307 -539.365
lowerback -0.576899 0.530141 -3.07363
upperback 5.31549 0.855181 -2.00927
thorax 5.82018 0.301949 -0.321195
lowerneck 2.07321 -0.775963 -3.65399
upperneck 19.8089 -0.862026 -2.63428
head 5.65254 -0.988415 -0.26728
rclavicle 1.78906e-015 -7.95139e-016
rhumerus -33.3312 -17.8055 -72.9125
rradius 88.7256
rwrist 19.5424
rhand -36.4688 -52.9833
rfingers 7.12502
rthumb -9.56214 637.254
lclavicle 1.78906e-015 -7.95139e-016
lhumerus -5.28836 -10.8213 74.4766
lradius 70.2389
lwrist -27.6624
lhand -38.7889 -763.697
lfingers 7.12502
lthumb -11.8001 -14.0494
rfemur -12.495 -14.5642 10.1239
rtibia 41.1962
rfoot -29.4221 -15.5254
rtoes -10.6973
lfemur 692.321 -0.575389 713.57
ltibia 39.9509
lfoot -17.6056 7.91285
ltoes -27.5746
2786
root -17.0779 16.2239 -4.15512 183.551 -486.19 -539.292
lowerback -0.527126 0.370258 -3.20657
upperback 5.31264 0.636976 -1.85188
thorax 5.78926 0.183841 -0.0957587
lowerneck 1.82825 -0.571337 -4.06904
upperneck 19.8623 -0.569288 -2.55685
head 5.71337 -0.874702 -0.162859
rclavicle -1.64991e-014 3.97569e-015
rhumerus -32.9502 -17.2358 -72.6708
rradius 88.6127
rwrist 19.6206
rhand -36.2495 -52.6888
rfingers 7.12502
rthumb -9.35056 637.539
lclavicle -1.64991e-014 3.97569e-015
lhumerus -5.59847 -10.2425 74.3827
lradius 70.2221
lwrist -27.6195
lhand -38.7938 -763.602
lfingers 7.12502
lthumb -11.8049 -13.955
rfemur -12.5683 -14.4414 10.1259
rtibia 41.0903
rfoot -29.5465 -15.5631
rtoes -10.6447
lfemur 692.27 -0.478633 713.473
ltibia 39.9284
lfoot -17.5886 8.08783
ltoes -28.5455
2787
root -17.0977 16.2281 -4.14997 183.676 -485.985 -539.263
lowerback -0.46284 0.247074 -3.34462
upperback 5.28107 0.467044 -1.70426
thorax 5.72084 0.0905575 0.125361
lowerneck 1.81484 -0.305962 -4.41048
upperneck 19.5994 -0.229891 -2.37066
head 5.63255 -0.715033 -0.0313042
rclavicle 1.39149e-014 1.51076e-014
rhumerus -32.6214 -16.6627 -72.5178
rradius 88.5393
rwrist 19.6611
rhand -36.1989 -52.5009
rfingers 7.12502
rthumb -9.30171 637.724
lclavicle 1.39149e-014 1.51076e-014
lhumerus -5.57449 -9.64769 74.3713
lradius 69.8466
lwrist -27.6763
lhand -38.7023 -763.041
lfingers 7.12502
lthumb -11.7166 -13.3882
rfemur -12.6927 -14.0806 10.205
rtibia 41.0274
rfoot -29.7522 -15.5762
rtoes -9.72601
lfemur 692.259 -0.424756 713.45
ltibia 39.8608
lfoot -17.6312 8.29132
ltoes -28.6171
2788
root -17.1197 16.2273 -4.14645 183.82 -485.675 -539.295
lowerback -0.45296 0.350255 -3.279
upperback 5.246 0.602748 -1.739
thorax 5.67509 0.162775 0.0600767
lowerneck 1.90259 -0.328413 -4.3704
upperneck 19.497 -0.296897 -2.18858
head 5.5855 -0.729155 0.01735
rclavicle 5.84427e-014 5.56597e-015
rhumerus -32.5972 -16.7436 -72.432
rradius 88.5247
rwrist 19.8497
rhand -36.2243 -52.5129
rfingers 7.12502
rthumb -9.32624 637.713
lclavicle 5.84427e-014 5.56597e-015
lhumerus -5.15999 -9.7203 74.2488
lradius 69.3122
lwrist -27.7516
lhand -38.5587 -762.695
lfingers 7.12502
lthumb -11.5781 -13.0344
rfemur -12.8102 -13.6392 10.3556
rtibia 40.9925
rfoot -29.9306 -15.7042
rtoes -9.08461
lfemur 692.358 -0.52108 713.537
ltibia 39.7757
lfoot -17.792 8.68027
ltoes -28.2375
2789
root -17.1406 16.2258 -4.14128 183.95 -485.341 -539.329
lowerback -0.448222 0.143088 -3.77155
upperback 5.21791 0.323484 -1.28465
thorax 5.64726 -0.00907379 0.792013
lowerneck 1.6247 -0.0965937 -5.23442
upperneck 19.8024 0.0677033 -2.21935
head 5.7314 -0.630012 0.164864
rclavicle -6.42074e-014 9.54166e-015
rhumerus -32.0165 -15.6267 -72.0869
rradius 88.355
rwrist 20.067
rhand -36.4748 -52.6576
rfingers 7.12502
rthumb -9.56791 637.58
lclavicle -6.42074e-014 9.54166e-015
lhumerus -5.24597 -8.43518 74.7726
lradius 68.8297
lwrist -28.1887
lhand -38.5881 -762.706
lfingers 7.12502
lthumb -11.6064 -13.0473
rfemur -12.8955 -13.1835 10.4862
rtibia 40.9811
rfoot -30.2121 -15.7636
rtoes -8.61049
lfemur 692.522 -0.645171 713.634
ltibia 39.6861
lfoot -17.9562 9.01513
ltoes -27.8476
2790
root -17.1599 16.2209 -4.13353 183.942 -485.039 -539.246
lowerback -0.453529 0.429144 -3.37062
upperback 5.17934 0.703401 -1.57701
thorax 5.59952 0.206376 0.284958
lowerneck 1.1739 -0.387438 -4.75784
upperneck 20.7763 -0.335038 -2.0427
head 6.11865 -0.811354 0.118013
rclavicle 8.22969e-014 -3.73715e-014
rhumerus -32.3984 -16.3434 -72.0801
rradius 88.4651
rwrist 20.396
rhand -36.725 -52.8031
rfingers 7.12502
rthumb -9.80932 637.445
lclavicle 8.22969e-014 -3.73715e-014
lhumerus -5.94844 -9.33496 74.2808
lradius 69.6489
lwrist -27.9443
lhand -38.4786 -762.439
lfingers 7.12502
lthumb -11.5008 -12.7747
rfemur -12.936 -12.8873 10.5024
rtibia 40.9848
rfoot -30.3748 -15.9652
rtoes -8.83932
lfemur 692.729 -0.748909 713.631
ltibia 39.5947
lfoot -17.9821 9.37846
ltoes -27.6072
2791
root -17.1793 16.2139 -4.12626 183.707 -484.765 -538.91
lowerback -0.368201 0.741653 -2.9046
upperback 5.0845 1.1186 -2.07823
thorax 5.4558 0.448237 -0.474527
lowerneck 1.42861 -0.629435 -3.90942
upperneck 20.7623 -0.713866 -2.05946
head 6.06669 -0.929529 -0.0460841
rclavicle 1.11319e-014 1.43125e-014
rhumerus -32.8505 -17.2121 -72.1378
rradius 88.4875
rwrist 20.5767
rhand -36.5879 -53.1289
rfingers 7.12502
rthumb -9.67703 637.113
lclavicle 1.11319e-014 1.43125e-014
lhumerus -6.00434 -10.4594 73.7174
lradius 69.944
lwrist -27.8647
lhand -38.3173 -761.959
lfingers 7.12502
lthumb -11.3453 -12.2857
rfemur -12.9767 -12.7657 10.3552
rtibia 40.9771
rfoot -30.2368 -16.4569
rtoes -9.84561
lfemur 692.96 -0.81214 713.459
ltibia 39.5202
lfoot -18.0842 9.76136
ltoes -27.181
2792
root -17.1987 16.2099 -4.12032 183.579 -484.49 -538.621
lowerback -0.39975 0.802593 -2.87399
upperback 5.00173 1.20444 -2.23258
thorax 5.38981 0.497218 -0.64701
lowerneck 1.48252 -0.569479 -3.82766
upperneck 20.9053 -0.683378 -1.81702
head 6.10217 -0.897069 0.0181327
rclavicle -2.22639e-014 -3.97569e-015
rhumerus -32.6922 -17.1564 -72.0339
rradius 88.2555
rwrist 20.5664
rhand -36.395 -53.3098
rfingers 7.12502
rthumb -9.49091 636.924
lclavicle -2.22639e-014 -3.97569e-015
lhumerus -5.99758 -10.5329 73.509
lradius 69.962
lwrist -28.0032
lhand -38.2925 -761.681
lfingers 7.12502
lthumb -11.3214 -12.0063
rfemur -13.083 -12.4971 10.2561
rtibia 40.9433
rfoot -30.3179 -16.6808
rtoes -9.4395
lfemur 693.085 -0.655574 713.321
ltibia 39.4743
lfoot -18.3738 9.82497
ltoes -26.6841
2793
root -17.2191 16.2025 -4.11097 183.623 -484.3 -538.506
lowerback -0.644768 0.615974 -3.19734
upperback 5.06119 0.970015 -1.97722
thorax 5.58606 0.357701 -0.211177
lowerneck 0.971209 -0.451279 -4.33202
upperneck 21.4685 -0.479 -1.77836
head 6.3726 -0.853546 0.119739
rclavicle 1.0635e-013 -3.89618e-014
rhumerus -31.9381 -16.3179 -71.8719
rradius 87.9968
rwrist 20.4062
rhand -36.2624 -53.0848
rfingers 7.12502
rthumb -9.36302 637.143
lclavicle 1.0635e-013 -3.89618e-014
lhumerus -6.09723 -9.69888 73.5662
lradius 70.0759
lwrist -28.0038
lhand -38.2425 -761.54
lfingers 7.12502
lthumb -11.2731 -11.8629
rfemur -13.1335 -12.3358 10.2357
rtibia 40.8867
rfoot -30.6592 -16.5874
rtoes -8.36228
lfemur 693.122 -0.439626 713.292
ltibia 39.4471
lfoot -18.6427 9.67328
ltoes -26.6217
2794
root -17.2412 16.1887 -4.0998 183.542 -484.224 -538.31
lowerback -0.819226 0.659167 -3.06097
upperback 5.01843 1.03712 -2.12821
thorax 5.64464 0.400916 -0.438611
lowerneck 0.970756 -0.407849 -3.90685
upperneck 21.5875 -0.451855 -1.7275
head 6.40655 -0.807758 0.0654285
rclavicle 4.85035e-014 -5.725e-014
rhumerus -32.0228 -16.4352 -71.9247
rradius 88.0428
rwrist 20.24
rhand -35.9775 -52.8786
rfingers 7.12502
rthumb -9.08808 637.337
lclavicle 4.85035e-014 -5.725e-014
lhumerus -6.13468 -9.98844 73.3176
lradius 70.1737
lwrist -27.7599
lhand -38.1798 -761.396
lfingers 7.12502
lthumb -11.2127 -11.7158
rfemur -13.0258 -12.4674 10.1243
rtibia 40.8105
rfoot -30.864 -16.5617
rtoes -8.74071
lfemur 693.2 -0.361134 713.206
ltibia 39.4162
lfoot -18.8695 9.62105
ltoes -27.0853
